<mxfile host="Electron" agent="Mozilla/5.0 (Macintosh; Intel Mac OS X 10_15_7) AppleWebKit/537.36 (KHTML, like Gecko) draw.io/26.0.4 Chrome/128.0.6613.186 Electron/32.2.5 Safari/537.36" version="26.0.4">
  <diagram name="Page-1" id="e56a1550-8fbb-45ad-956c-1786394a9013">
    <mxGraphModel dx="3174" dy="2064" grid="1" gridSize="10" guides="1" tooltips="1" connect="1" arrows="1" fold="1" page="1" pageScale="1" pageWidth="1100" pageHeight="850" background="none" math="0" shadow="0">
      <root>
        <mxCell id="0" />
        <mxCell id="1" parent="0" />
        <mxCell id="2e49270ec7c68f3f-57" value="" style="edgeStyle=orthogonalEdgeStyle;html=1;endArrow=ERmany;startArrow=ERmany;labelBackgroundColor=none;fontFamily=Verdana;fontSize=14;entryX=1;entryY=0.5;exitX=0;exitY=0.383;exitPerimeter=0;" parent="1" source="2e49270ec7c68f3f-11" edge="1">
          <mxGeometry width="100" height="100" relative="1" as="geometry">
            <mxPoint x="560" y="220" as="sourcePoint" />
            <mxPoint x="830" y="161" as="targetPoint" />
            <Array as="points">
              <mxPoint x="510" y="220" />
              <mxPoint x="510" y="181" />
              <mxPoint x="900" y="181" />
              <mxPoint x="900" y="-49" />
            </Array>
          </mxGeometry>
        </mxCell>
        <mxCell id="gLrb5AoinnA71DhXJc84-2" value="" style="rounded=0;whiteSpace=wrap;html=1;" vertex="1" parent="1">
          <mxGeometry x="120" y="-760" width="960" height="60" as="geometry" />
        </mxCell>
        <mxCell id="gLrb5AoinnA71DhXJc84-3" value="" style="rounded=0;whiteSpace=wrap;html=1;" vertex="1" parent="1">
          <mxGeometry y="-640" width="60" height="610" as="geometry" />
        </mxCell>
        <mxCell id="gLrb5AoinnA71DhXJc84-4" value="" style="endArrow=none;dashed=1;html=1;dashPattern=1 3;strokeWidth=2;rounded=0;exitX=0;exitY=0;exitDx=0;exitDy=0;curved=1;" edge="1" parent="1" source="gLrb5AoinnA71DhXJc84-3">
          <mxGeometry width="50" height="50" relative="1" as="geometry">
            <mxPoint x="70" y="-710" as="sourcePoint" />
            <mxPoint x="120" y="-760" as="targetPoint" />
            <Array as="points">
              <mxPoint y="-760" />
            </Array>
          </mxGeometry>
        </mxCell>
        <mxCell id="gLrb5AoinnA71DhXJc84-7" value="" style="endArrow=none;dashed=1;html=1;dashPattern=1 3;strokeWidth=2;rounded=0;exitX=1;exitY=0;exitDx=0;exitDy=0;curved=1;entryX=0;entryY=1;entryDx=0;entryDy=0;" edge="1" parent="1" source="gLrb5AoinnA71DhXJc84-3" target="gLrb5AoinnA71DhXJc84-2">
          <mxGeometry width="50" height="50" relative="1" as="geometry">
            <mxPoint x="10" y="-630" as="sourcePoint" />
            <mxPoint x="130" y="-750" as="targetPoint" />
            <Array as="points">
              <mxPoint x="50" y="-700" />
            </Array>
          </mxGeometry>
        </mxCell>
        <mxCell id="gLrb5AoinnA71DhXJc84-12" value="&lt;font face=&quot;Courier New&quot;&gt;7f454c46&lt;/font&gt;" style="rounded=0;whiteSpace=wrap;html=1;fillColor=#d5e8d4;strokeColor=#82b366;" vertex="1" parent="1">
          <mxGeometry y="-640" width="60" height="30" as="geometry" />
        </mxCell>
        <mxCell id="gLrb5AoinnA71DhXJc84-13" value="&lt;font face=&quot;Courier New&quot;&gt;7f454c46&lt;/font&gt;" style="rounded=0;whiteSpace=wrap;html=1;fillColor=#d5e8d4;strokeColor=#82b366;textDirection=vertical-lr;" vertex="1" parent="1">
          <mxGeometry x="120" y="-760" width="30" height="60" as="geometry" />
        </mxCell>
        <mxCell id="gLrb5AoinnA71DhXJc84-101" value="ELF&lt;div&gt;file&lt;/div&gt;" style="text;html=1;align=left;verticalAlign=middle;whiteSpace=wrap;rounded=0;fontSize=18;" vertex="1" parent="1">
          <mxGeometry y="-780" width="70" height="10" as="geometry" />
        </mxCell>
        <mxCell id="gLrb5AoinnA71DhXJc84-14" value="sections" parent="0" />
        <mxCell id="gLrb5AoinnA71DhXJc84-16" value="" style="rounded=0;whiteSpace=wrap;html=1;fontFamily=Courier New;align=left;" vertex="1" parent="gLrb5AoinnA71DhXJc84-14">
          <mxGeometry x="120" y="-440" width="120" height="210" as="geometry" />
        </mxCell>
        <mxCell id="gLrb5AoinnA71DhXJc84-18" value="" style="whiteSpace=wrap;html=1;aspect=fixed;fillColor=#dae8fc;strokeColor=#6c8ebf;" vertex="1" parent="gLrb5AoinnA71DhXJc84-14">
          <mxGeometry y="-360" width="60" height="60" as="geometry" />
        </mxCell>
        <mxCell id="gLrb5AoinnA71DhXJc84-19" value="" style="endArrow=none;html=1;rounded=0;entryX=0;entryY=0;entryDx=0;entryDy=0;" edge="1" parent="gLrb5AoinnA71DhXJc84-14" target="gLrb5AoinnA71DhXJc84-16">
          <mxGeometry width="50" height="50" relative="1" as="geometry">
            <mxPoint x="60" y="-360" as="sourcePoint" />
            <mxPoint x="110" y="-410" as="targetPoint" />
          </mxGeometry>
        </mxCell>
        <mxCell id="gLrb5AoinnA71DhXJc84-20" value="" style="endArrow=none;html=1;rounded=0;entryX=0;entryY=1;entryDx=0;entryDy=0;exitX=1;exitY=1;exitDx=0;exitDy=0;" edge="1" parent="gLrb5AoinnA71DhXJc84-14" source="gLrb5AoinnA71DhXJc84-18" target="gLrb5AoinnA71DhXJc84-16">
          <mxGeometry width="50" height="50" relative="1" as="geometry">
            <mxPoint x="70" y="-350" as="sourcePoint" />
            <mxPoint x="130" y="-630" as="targetPoint" />
          </mxGeometry>
        </mxCell>
        <mxCell id="gLrb5AoinnA71DhXJc84-21" value="Section data&lt;br&gt;(.text)" style="text;html=1;align=left;verticalAlign=middle;whiteSpace=wrap;rounded=0;fontSize=18;" vertex="1" parent="gLrb5AoinnA71DhXJc84-14">
          <mxGeometry x="120" y="-500" width="120" height="60" as="geometry" />
        </mxCell>
        <mxCell id="gLrb5AoinnA71DhXJc84-22" value="" style="rounded=0;whiteSpace=wrap;html=1;fillColor=#ffe6cc;strokeColor=#d79b00;" vertex="1" parent="gLrb5AoinnA71DhXJc84-14">
          <mxGeometry x="200" y="-760" width="100" height="60" as="geometry" />
        </mxCell>
        <mxCell id="gLrb5AoinnA71DhXJc84-25" value="" style="endArrow=none;html=1;rounded=0;exitX=0.25;exitY=1;exitDx=0;exitDy=0;entryX=0.25;entryY=0;entryDx=0;entryDy=0;" edge="1" parent="gLrb5AoinnA71DhXJc84-14">
          <mxGeometry width="50" height="50" relative="1" as="geometry">
            <mxPoint x="240" y="-700" as="sourcePoint" />
            <mxPoint x="240" y="-760" as="targetPoint" />
          </mxGeometry>
        </mxCell>
        <mxCell id="gLrb5AoinnA71DhXJc84-26" value="" style="endArrow=none;html=1;rounded=0;exitX=0.25;exitY=1;exitDx=0;exitDy=0;entryX=0.25;entryY=0;entryDx=0;entryDy=0;" edge="1" parent="gLrb5AoinnA71DhXJc84-14">
          <mxGeometry width="50" height="50" relative="1" as="geometry">
            <mxPoint x="260" y="-700" as="sourcePoint" />
            <mxPoint x="260" y="-760" as="targetPoint" />
          </mxGeometry>
        </mxCell>
        <mxCell id="gLrb5AoinnA71DhXJc84-28" value="" style="endArrow=none;html=1;rounded=0;exitX=0.25;exitY=1;exitDx=0;exitDy=0;entryX=0.25;entryY=0;entryDx=0;entryDy=0;" edge="1" parent="gLrb5AoinnA71DhXJc84-14">
          <mxGeometry width="50" height="50" relative="1" as="geometry">
            <mxPoint x="220" y="-700" as="sourcePoint" />
            <mxPoint x="220" y="-760" as="targetPoint" />
          </mxGeometry>
        </mxCell>
        <mxCell id="gLrb5AoinnA71DhXJc84-29" value="" style="endArrow=none;html=1;rounded=0;exitX=0.25;exitY=1;exitDx=0;exitDy=0;entryX=0.25;entryY=0;entryDx=0;entryDy=0;" edge="1" parent="gLrb5AoinnA71DhXJc84-14">
          <mxGeometry width="50" height="50" relative="1" as="geometry">
            <mxPoint x="280" y="-700" as="sourcePoint" />
            <mxPoint x="280" y="-760" as="targetPoint" />
          </mxGeometry>
        </mxCell>
        <mxCell id="gLrb5AoinnA71DhXJc84-33" value="&lt;div&gt;&lt;br&gt;&lt;/div&gt;name&lt;div&gt;type&lt;div&gt;flags&lt;/div&gt;&lt;div style=&quot;&quot;&gt;file_offset&lt;/div&gt;&lt;div style=&quot;&quot;&gt;address&lt;/div&gt;&lt;div style=&quot;&quot;&gt;&lt;br&gt;&lt;/div&gt;&lt;/div&gt;" style="rounded=0;whiteSpace=wrap;html=1;fillColor=#ffe6cc;strokeColor=#d79b00;fontFamily=Courier New;align=left;" vertex="1" parent="gLrb5AoinnA71DhXJc84-14">
          <mxGeometry x="120" y="-640" width="130" height="80" as="geometry" />
        </mxCell>
        <mxCell id="gLrb5AoinnA71DhXJc84-34" value="" style="curved=1;endArrow=classic;html=1;rounded=0;exitX=0.25;exitY=1;exitDx=0;exitDy=0;entryX=0;entryY=0;entryDx=0;entryDy=0;" edge="1" parent="gLrb5AoinnA71DhXJc84-14" source="gLrb5AoinnA71DhXJc84-22" target="gLrb5AoinnA71DhXJc84-33">
          <mxGeometry width="50" height="50" relative="1" as="geometry">
            <mxPoint x="1010" y="-210" as="sourcePoint" />
            <mxPoint x="1060" y="-260" as="targetPoint" />
            <Array as="points">
              <mxPoint x="210" y="-670" />
              <mxPoint x="130" y="-670" />
            </Array>
          </mxGeometry>
        </mxCell>
        <mxCell id="gLrb5AoinnA71DhXJc84-35" value="" style="curved=1;endArrow=classic;html=1;rounded=0;exitX=-0.008;exitY=0.631;exitDx=0;exitDy=0;exitPerimeter=0;entryX=0;entryY=0;entryDx=0;entryDy=0;" edge="1" parent="gLrb5AoinnA71DhXJc84-14" source="gLrb5AoinnA71DhXJc84-33" target="gLrb5AoinnA71DhXJc84-16">
          <mxGeometry width="50" height="50" relative="1" as="geometry">
            <mxPoint x="161" y="-590" as="sourcePoint" />
            <mxPoint x="34" y="-532" as="targetPoint" />
            <Array as="points">
              <mxPoint x="90" y="-570" />
              <mxPoint x="80" y="-490" />
            </Array>
          </mxGeometry>
        </mxCell>
        <mxCell id="gLrb5AoinnA71DhXJc84-99" style="edgeStyle=orthogonalEdgeStyle;rounded=0;orthogonalLoop=1;jettySize=auto;html=1;exitX=0.5;exitY=1;exitDx=0;exitDy=0;" edge="1" parent="gLrb5AoinnA71DhXJc84-14" source="gLrb5AoinnA71DhXJc84-16" target="gLrb5AoinnA71DhXJc84-16">
          <mxGeometry relative="1" as="geometry" />
        </mxCell>
        <mxCell id="gLrb5AoinnA71DhXJc84-102" value="Section headers" style="text;html=1;align=left;verticalAlign=middle;whiteSpace=wrap;rounded=0;fontSize=18;" vertex="1" parent="gLrb5AoinnA71DhXJc84-14">
          <mxGeometry x="210" y="-780" width="70" height="10" as="geometry" />
        </mxCell>
        <mxCell id="gLrb5AoinnA71DhXJc84-36" value="symbols" parent="0" />
        <mxCell id="gLrb5AoinnA71DhXJc84-37" value="" style="rounded=0;whiteSpace=wrap;html=1;" vertex="1" parent="gLrb5AoinnA71DhXJc84-36">
          <mxGeometry x="320" y="-440" width="120" height="210" as="geometry" />
        </mxCell>
        <mxCell id="gLrb5AoinnA71DhXJc84-38" value="" style="rounded=0;whiteSpace=wrap;html=1;fillColor=#dae8fc;strokeColor=#6c8ebf;" vertex="1" parent="gLrb5AoinnA71DhXJc84-36">
          <mxGeometry x="120" y="-410" width="120" height="50" as="geometry" />
        </mxCell>
        <mxCell id="gLrb5AoinnA71DhXJc84-39" value="" style="endArrow=none;html=1;rounded=0;entryX=1;entryY=0;entryDx=0;entryDy=0;exitX=0;exitY=0;exitDx=0;exitDy=0;" edge="1" parent="gLrb5AoinnA71DhXJc84-36" source="gLrb5AoinnA71DhXJc84-37" target="gLrb5AoinnA71DhXJc84-38">
          <mxGeometry width="50" height="50" relative="1" as="geometry">
            <mxPoint x="1010" y="-210" as="sourcePoint" />
            <mxPoint x="1060" y="-260" as="targetPoint" />
          </mxGeometry>
        </mxCell>
        <mxCell id="gLrb5AoinnA71DhXJc84-40" value="" style="endArrow=none;html=1;rounded=0;exitX=0;exitY=1;exitDx=0;exitDy=0;entryX=1;entryY=1;entryDx=0;entryDy=0;" edge="1" parent="gLrb5AoinnA71DhXJc84-36" source="gLrb5AoinnA71DhXJc84-37" target="gLrb5AoinnA71DhXJc84-38">
          <mxGeometry width="50" height="50" relative="1" as="geometry">
            <mxPoint x="330" y="-430" as="sourcePoint" />
            <mxPoint x="280" y="-190" as="targetPoint" />
          </mxGeometry>
        </mxCell>
        <mxCell id="gLrb5AoinnA71DhXJc84-41" value="Symbol data&lt;br&gt;(do_calc)" style="text;html=1;align=left;verticalAlign=middle;whiteSpace=wrap;rounded=0;fontSize=18;" vertex="1" parent="gLrb5AoinnA71DhXJc84-36">
          <mxGeometry x="320" y="-480" width="120" height="30" as="geometry" />
        </mxCell>
        <mxCell id="gLrb5AoinnA71DhXJc84-42" value="&lt;div&gt;name&lt;/div&gt;&lt;div&gt;&lt;span style=&quot;background-color: transparent; color: light-dark(rgb(0, 0, 0), rgb(255, 255, 255));&quot;&gt;flags&lt;/span&gt;&lt;br&gt;&lt;/div&gt;&lt;div style=&quot;&quot;&gt;&lt;span style=&quot;background-color: transparent; color: light-dark(rgb(0, 0, 0), rgb(255, 255, 255));&quot;&gt;section&lt;/span&gt;&lt;br&gt;&lt;/div&gt;&lt;div style=&quot;&quot;&gt;&lt;span style=&quot;background-color: transparent; color: light-dark(rgb(0, 0, 0), rgb(255, 255, 255));&quot;&gt;section_offset&lt;/span&gt;&lt;/div&gt;&lt;div style=&quot;&quot;&gt;&lt;div&gt;&lt;br&gt;&lt;/div&gt;&lt;/div&gt;" style="rounded=0;whiteSpace=wrap;html=1;fillColor=#e1d5e7;strokeColor=#9673a6;fontFamily=Courier New;align=left;" vertex="1" parent="gLrb5AoinnA71DhXJc84-36">
          <mxGeometry x="320" y="-640" width="130" height="80" as="geometry" />
        </mxCell>
        <mxCell id="gLrb5AoinnA71DhXJc84-44" value="&lt;div&gt;&lt;br&gt;&lt;/div&gt;" style="rounded=0;whiteSpace=wrap;html=1;fillColor=#e1d5e7;strokeColor=#9673a6;fontFamily=Courier New;align=left;" vertex="1" parent="gLrb5AoinnA71DhXJc84-36">
          <mxGeometry x="440" y="-760" width="120" height="60" as="geometry" />
        </mxCell>
        <mxCell id="gLrb5AoinnA71DhXJc84-45" value="" style="curved=1;endArrow=classic;html=1;rounded=0;entryX=0;entryY=0;entryDx=0;entryDy=0;" edge="1" parent="gLrb5AoinnA71DhXJc84-36" target="gLrb5AoinnA71DhXJc84-44">
          <mxGeometry width="50" height="50" relative="1" as="geometry">
            <mxPoint x="291" y="-760" as="sourcePoint" />
            <mxPoint x="120" y="-702" as="targetPoint" />
            <Array as="points">
              <mxPoint x="330" y="-780" />
              <mxPoint x="400" y="-780" />
            </Array>
          </mxGeometry>
        </mxCell>
        <mxCell id="gLrb5AoinnA71DhXJc84-46" value="" style="curved=1;endArrow=classic;html=1;rounded=0;exitX=0.25;exitY=1;exitDx=0;exitDy=0;entryX=0;entryY=0;entryDx=0;entryDy=0;" edge="1" parent="gLrb5AoinnA71DhXJc84-36" source="gLrb5AoinnA71DhXJc84-44" target="gLrb5AoinnA71DhXJc84-42">
          <mxGeometry width="50" height="50" relative="1" as="geometry">
            <mxPoint x="440" y="-700" as="sourcePoint" />
            <mxPoint x="292" y="-642" as="targetPoint" />
            <Array as="points">
              <mxPoint x="422" y="-682" />
              <mxPoint x="322" y="-672" />
            </Array>
          </mxGeometry>
        </mxCell>
        <mxCell id="gLrb5AoinnA71DhXJc84-47" value="" style="endArrow=none;html=1;rounded=0;exitX=0.25;exitY=1;exitDx=0;exitDy=0;entryX=0.25;entryY=0;entryDx=0;entryDy=0;" edge="1" parent="gLrb5AoinnA71DhXJc84-36">
          <mxGeometry width="50" height="50" relative="1" as="geometry">
            <mxPoint x="460" y="-700" as="sourcePoint" />
            <mxPoint x="460" y="-760" as="targetPoint" />
          </mxGeometry>
        </mxCell>
        <mxCell id="gLrb5AoinnA71DhXJc84-48" value="" style="endArrow=none;html=1;rounded=0;exitX=0.25;exitY=1;exitDx=0;exitDy=0;entryX=0.25;entryY=0;entryDx=0;entryDy=0;" edge="1" parent="gLrb5AoinnA71DhXJc84-36">
          <mxGeometry width="50" height="50" relative="1" as="geometry">
            <mxPoint x="480" y="-700" as="sourcePoint" />
            <mxPoint x="480" y="-760" as="targetPoint" />
          </mxGeometry>
        </mxCell>
        <mxCell id="gLrb5AoinnA71DhXJc84-49" value="" style="endArrow=none;html=1;rounded=0;exitX=0.25;exitY=1;exitDx=0;exitDy=0;entryX=0.25;entryY=0;entryDx=0;entryDy=0;" edge="1" parent="gLrb5AoinnA71DhXJc84-36">
          <mxGeometry width="50" height="50" relative="1" as="geometry">
            <mxPoint x="500" y="-700" as="sourcePoint" />
            <mxPoint x="500" y="-760" as="targetPoint" />
          </mxGeometry>
        </mxCell>
        <mxCell id="gLrb5AoinnA71DhXJc84-50" value="" style="endArrow=none;html=1;rounded=0;exitX=0.25;exitY=1;exitDx=0;exitDy=0;entryX=0.25;entryY=0;entryDx=0;entryDy=0;" edge="1" parent="gLrb5AoinnA71DhXJc84-36">
          <mxGeometry width="50" height="50" relative="1" as="geometry">
            <mxPoint x="520" y="-700" as="sourcePoint" />
            <mxPoint x="520" y="-760" as="targetPoint" />
          </mxGeometry>
        </mxCell>
        <mxCell id="gLrb5AoinnA71DhXJc84-51" value="" style="endArrow=none;html=1;rounded=0;exitX=0.25;exitY=1;exitDx=0;exitDy=0;entryX=0.25;entryY=0;entryDx=0;entryDy=0;" edge="1" parent="gLrb5AoinnA71DhXJc84-36">
          <mxGeometry width="50" height="50" relative="1" as="geometry">
            <mxPoint x="540" y="-700" as="sourcePoint" />
            <mxPoint x="540" y="-760" as="targetPoint" />
          </mxGeometry>
        </mxCell>
        <mxCell id="gLrb5AoinnA71DhXJc84-52" value="" style="curved=1;endArrow=classic;html=1;rounded=0;exitX=-0.008;exitY=0.631;exitDx=0;exitDy=0;exitPerimeter=0;entryX=0;entryY=0;entryDx=0;entryDy=0;" edge="1" parent="gLrb5AoinnA71DhXJc84-36" target="gLrb5AoinnA71DhXJc84-37">
          <mxGeometry width="50" height="50" relative="1" as="geometry">
            <mxPoint x="320" y="-590" as="sourcePoint" />
            <mxPoint x="301" y="-440" as="targetPoint" />
            <Array as="points">
              <mxPoint x="311" y="-580" />
              <mxPoint x="261" y="-490" />
            </Array>
          </mxGeometry>
        </mxCell>
        <mxCell id="gLrb5AoinnA71DhXJc84-67" value="Symbol t&lt;span style=&quot;background-color: transparent; color: light-dark(rgb(0, 0, 0), rgb(255, 255, 255));&quot;&gt;able&lt;/span&gt;" style="text;html=1;align=left;verticalAlign=middle;whiteSpace=wrap;rounded=0;fontSize=18;" vertex="1" parent="gLrb5AoinnA71DhXJc84-36">
          <mxGeometry x="440" y="-780" width="130" height="10" as="geometry" />
        </mxCell>
        <mxCell id="gLrb5AoinnA71DhXJc84-53" value="instructions" parent="0" />
        <mxCell id="gLrb5AoinnA71DhXJc84-54" value="&lt;font style=&quot;font-size: 16px;&quot; face=&quot;Courier New&quot;&gt;eieio&lt;/font&gt;" style="rounded=0;whiteSpace=wrap;html=1;align=left;" vertex="1" parent="gLrb5AoinnA71DhXJc84-53">
          <mxGeometry x="520" y="-440" width="160" height="20" as="geometry" />
        </mxCell>
        <mxCell id="gLrb5AoinnA71DhXJc84-55" value="Instruction data" style="text;html=1;align=left;verticalAlign=middle;whiteSpace=wrap;rounded=0;fontSize=18;movable=1;resizable=1;rotatable=1;deletable=1;editable=1;locked=0;connectable=1;" vertex="1" parent="gLrb5AoinnA71DhXJc84-53">
          <mxGeometry x="520" y="-470" width="160" height="30" as="geometry" />
        </mxCell>
        <mxCell id="gLrb5AoinnA71DhXJc84-57" value="&lt;font style=&quot;font-size: 16px;&quot; face=&quot;Courier New&quot;&gt;bgt&amp;nbsp; &amp;nbsp; &amp;nbsp; &amp;nbsp;+0x32&lt;span style=&quot;white-space: pre;&quot;&gt;&#x9;&lt;/span&gt;&lt;/font&gt;" style="rounded=0;whiteSpace=wrap;html=1;align=left;" vertex="1" parent="gLrb5AoinnA71DhXJc84-53">
          <mxGeometry x="520" y="-420" width="160" height="20" as="geometry" />
        </mxCell>
        <mxCell id="gLrb5AoinnA71DhXJc84-58" value="&lt;font face=&quot;Courier New&quot;&gt;&lt;span style=&quot;font-size: 16px;&quot;&gt;bl&amp;nbsp; &amp;nbsp; &amp;nbsp; &amp;nbsp; printf&lt;/span&gt;&lt;/font&gt;" style="rounded=0;whiteSpace=wrap;html=1;align=left;" vertex="1" parent="gLrb5AoinnA71DhXJc84-53">
          <mxGeometry x="520" y="-400" width="160" height="20" as="geometry" />
        </mxCell>
        <mxCell id="gLrb5AoinnA71DhXJc84-59" value="" style="rounded=0;whiteSpace=wrap;html=1;fillColor=#dae8fc;strokeColor=#6c8ebf;" vertex="1" parent="gLrb5AoinnA71DhXJc84-53">
          <mxGeometry x="320" y="-330" width="120" height="30" as="geometry" />
        </mxCell>
        <mxCell id="gLrb5AoinnA71DhXJc84-60" value="" style="endArrow=none;html=1;rounded=0;entryX=1;entryY=0.25;entryDx=0;entryDy=0;exitX=0;exitY=0.25;exitDx=0;exitDy=0;" edge="1" parent="gLrb5AoinnA71DhXJc84-53">
          <mxGeometry width="50" height="50" relative="1" as="geometry">
            <mxPoint x="320" y="-320" as="sourcePoint" />
            <mxPoint x="440" y="-320" as="targetPoint" />
          </mxGeometry>
        </mxCell>
        <mxCell id="gLrb5AoinnA71DhXJc84-61" value="" style="endArrow=none;html=1;rounded=0;entryX=1;entryY=0.25;entryDx=0;entryDy=0;exitX=0;exitY=0.25;exitDx=0;exitDy=0;" edge="1" parent="gLrb5AoinnA71DhXJc84-53">
          <mxGeometry width="50" height="50" relative="1" as="geometry">
            <mxPoint x="320" y="-310.5" as="sourcePoint" />
            <mxPoint x="440" y="-310.5" as="targetPoint" />
          </mxGeometry>
        </mxCell>
        <mxCell id="gLrb5AoinnA71DhXJc84-62" style="edgeStyle=orthogonalEdgeStyle;rounded=0;orthogonalLoop=1;jettySize=auto;html=1;exitX=0.5;exitY=1;exitDx=0;exitDy=0;" edge="1" parent="gLrb5AoinnA71DhXJc84-53" source="gLrb5AoinnA71DhXJc84-59" target="gLrb5AoinnA71DhXJc84-59">
          <mxGeometry relative="1" as="geometry" />
        </mxCell>
        <mxCell id="gLrb5AoinnA71DhXJc84-64" value="" style="endArrow=none;html=1;rounded=0;entryX=0;entryY=1;entryDx=0;entryDy=0;" edge="1" parent="gLrb5AoinnA71DhXJc84-53" target="gLrb5AoinnA71DhXJc84-55">
          <mxGeometry width="50" height="50" relative="1" as="geometry">
            <mxPoint x="440" y="-330" as="sourcePoint" />
            <mxPoint x="490" y="-380" as="targetPoint" />
          </mxGeometry>
        </mxCell>
        <mxCell id="gLrb5AoinnA71DhXJc84-65" value="" style="endArrow=none;html=1;rounded=0;entryX=0;entryY=1;entryDx=0;entryDy=0;exitX=1;exitY=1;exitDx=0;exitDy=0;" edge="1" parent="gLrb5AoinnA71DhXJc84-53" source="gLrb5AoinnA71DhXJc84-59" target="gLrb5AoinnA71DhXJc84-58">
          <mxGeometry width="50" height="50" relative="1" as="geometry">
            <mxPoint x="450" y="-320" as="sourcePoint" />
            <mxPoint x="530" y="-430" as="targetPoint" />
          </mxGeometry>
        </mxCell>
        <mxCell id="gLrb5AoinnA71DhXJc84-68" value="relocations" parent="0" />
        <mxCell id="gLrb5AoinnA71DhXJc84-69" value="symbol&lt;div&gt;&lt;br&gt;&lt;/div&gt;&lt;div&gt;&lt;br&gt;&lt;/div&gt;&lt;div&gt;offset&lt;/div&gt;" style="rounded=0;whiteSpace=wrap;html=1;fillColor=#f8cecc;strokeColor=#b85450;fontFamily=Courier New;align=left;" vertex="1" parent="gLrb5AoinnA71DhXJc84-68">
          <mxGeometry x="720" y="-640" width="130" height="80" as="geometry" />
        </mxCell>
        <mxCell id="gLrb5AoinnA71DhXJc84-70" value="" style="rounded=0;whiteSpace=wrap;html=1;fillColor=#f8cecc;strokeColor=#b85450;fontFamily=Courier New;align=left;" vertex="1" parent="gLrb5AoinnA71DhXJc84-68">
          <mxGeometry x="680" y="-760" width="100" height="60" as="geometry" />
        </mxCell>
        <mxCell id="gLrb5AoinnA71DhXJc84-71" value="" style="curved=1;endArrow=classic;html=1;rounded=0;entryX=0;entryY=0;entryDx=0;entryDy=0;" edge="1" parent="gLrb5AoinnA71DhXJc84-68" target="gLrb5AoinnA71DhXJc84-70">
          <mxGeometry width="50" height="50" relative="1" as="geometry">
            <mxPoint x="270" y="-760" as="sourcePoint" />
            <mxPoint x="462" y="-700" as="targetPoint" />
            <Array as="points">
              <mxPoint x="310" y="-800" />
              <mxPoint x="610" y="-800" />
            </Array>
          </mxGeometry>
        </mxCell>
        <mxCell id="gLrb5AoinnA71DhXJc84-73" value="Relocation entries" style="text;html=1;align=left;verticalAlign=middle;whiteSpace=wrap;rounded=0;fontSize=18;" vertex="1" parent="gLrb5AoinnA71DhXJc84-68">
          <mxGeometry x="680" y="-780" width="150" height="10" as="geometry" />
        </mxCell>
        <mxCell id="gLrb5AoinnA71DhXJc84-74" value="" style="endArrow=none;html=1;rounded=0;exitX=0.25;exitY=1;exitDx=0;exitDy=0;entryX=0.25;entryY=0;entryDx=0;entryDy=0;" edge="1" parent="gLrb5AoinnA71DhXJc84-68">
          <mxGeometry width="50" height="50" relative="1" as="geometry">
            <mxPoint x="700" y="-700" as="sourcePoint" />
            <mxPoint x="700" y="-760" as="targetPoint" />
          </mxGeometry>
        </mxCell>
        <mxCell id="gLrb5AoinnA71DhXJc84-75" value="" style="endArrow=none;html=1;rounded=0;exitX=0.25;exitY=1;exitDx=0;exitDy=0;entryX=0.25;entryY=0;entryDx=0;entryDy=0;" edge="1" parent="gLrb5AoinnA71DhXJc84-68">
          <mxGeometry width="50" height="50" relative="1" as="geometry">
            <mxPoint x="720" y="-700" as="sourcePoint" />
            <mxPoint x="720" y="-760" as="targetPoint" />
          </mxGeometry>
        </mxCell>
        <mxCell id="gLrb5AoinnA71DhXJc84-76" value="" style="endArrow=none;html=1;rounded=0;exitX=0.25;exitY=1;exitDx=0;exitDy=0;entryX=0.25;entryY=0;entryDx=0;entryDy=0;" edge="1" parent="gLrb5AoinnA71DhXJc84-68">
          <mxGeometry width="50" height="50" relative="1" as="geometry">
            <mxPoint x="740" y="-700" as="sourcePoint" />
            <mxPoint x="740" y="-760" as="targetPoint" />
          </mxGeometry>
        </mxCell>
        <mxCell id="gLrb5AoinnA71DhXJc84-77" value="" style="endArrow=none;html=1;rounded=0;exitX=0.25;exitY=1;exitDx=0;exitDy=0;entryX=0.25;entryY=0;entryDx=0;entryDy=0;" edge="1" parent="gLrb5AoinnA71DhXJc84-68">
          <mxGeometry width="50" height="50" relative="1" as="geometry">
            <mxPoint x="760" y="-700" as="sourcePoint" />
            <mxPoint x="760" y="-760" as="targetPoint" />
          </mxGeometry>
        </mxCell>
        <mxCell id="gLrb5AoinnA71DhXJc84-78" value="" style="curved=1;endArrow=classic;html=1;rounded=0;exitX=0;exitY=0.75;exitDx=0;exitDy=0;entryX=0.5;entryY=1;entryDx=0;entryDy=0;" edge="1" parent="gLrb5AoinnA71DhXJc84-68" source="gLrb5AoinnA71DhXJc84-69" target="gLrb5AoinnA71DhXJc84-58">
          <mxGeometry width="50" height="50" relative="1" as="geometry">
            <mxPoint x="850" y="-220" as="sourcePoint" />
            <mxPoint x="620" y="-383" as="targetPoint" />
            <Array as="points">
              <mxPoint x="680" y="-510" />
              <mxPoint x="730" y="-410" />
              <mxPoint x="700" y="-350" />
              <mxPoint x="680" y="-330" />
              <mxPoint x="650" y="-330" />
            </Array>
          </mxGeometry>
        </mxCell>
        <mxCell id="gLrb5AoinnA71DhXJc84-84" style="edgeStyle=orthogonalEdgeStyle;rounded=0;orthogonalLoop=1;jettySize=auto;html=1;exitX=0.5;exitY=1;exitDx=0;exitDy=0;" edge="1" parent="gLrb5AoinnA71DhXJc84-68">
          <mxGeometry relative="1" as="geometry">
            <mxPoint x="380" y="-40" as="sourcePoint" />
            <mxPoint x="380" y="-40" as="targetPoint" />
          </mxGeometry>
        </mxCell>
        <mxCell id="gLrb5AoinnA71DhXJc84-85" value="" style="curved=1;endArrow=classic;html=1;rounded=0;exitX=0.25;exitY=1;exitDx=0;exitDy=0;entryX=0;entryY=0;entryDx=0;entryDy=0;" edge="1" parent="gLrb5AoinnA71DhXJc84-68" target="gLrb5AoinnA71DhXJc84-69">
          <mxGeometry width="50" height="50" relative="1" as="geometry">
            <mxPoint x="750" y="-700" as="sourcePoint" />
            <mxPoint x="600" y="-640" as="targetPoint" />
            <Array as="points">
              <mxPoint x="730" y="-670" />
            </Array>
          </mxGeometry>
        </mxCell>
        <mxCell id="gLrb5AoinnA71DhXJc84-87" value="undefined section" parent="0" />
        <mxCell id="gLrb5AoinnA71DhXJc84-88" value="" style="rounded=0;whiteSpace=wrap;html=1;fillColor=#f5f5f5;fontColor=#333333;strokeColor=#666666;" vertex="1" parent="gLrb5AoinnA71DhXJc84-87">
          <mxGeometry x="320" y="-180" width="120" height="150" as="geometry" />
        </mxCell>
        <mxCell id="gLrb5AoinnA71DhXJc84-89" value="Symbol&lt;br&gt;(printf)" style="text;html=1;align=left;verticalAlign=middle;whiteSpace=wrap;rounded=0;fontSize=18;" vertex="1" parent="gLrb5AoinnA71DhXJc84-87">
          <mxGeometry x="320" y="-220" width="120" height="30" as="geometry" />
        </mxCell>
        <mxCell id="gLrb5AoinnA71DhXJc84-90" value="" style="curved=1;endArrow=classic;html=1;rounded=0;exitX=1;exitY=0.25;exitDx=0;exitDy=0;entryX=1;entryY=0;entryDx=0;entryDy=0;" edge="1" parent="gLrb5AoinnA71DhXJc84-87" target="gLrb5AoinnA71DhXJc84-88">
          <mxGeometry width="50" height="50" relative="1" as="geometry">
            <mxPoint x="850" y="-620" as="sourcePoint" />
            <mxPoint x="1060" y="-330" as="targetPoint" />
            <Array as="points">
              <mxPoint x="880" y="-520" />
              <mxPoint x="850" y="-340" />
              <mxPoint x="520" y="-230" />
            </Array>
          </mxGeometry>
        </mxCell>
        <mxCell id="gLrb5AoinnA71DhXJc84-91" value="" style="rounded=0;whiteSpace=wrap;html=1;fillColor=#f5f5f5;fontColor=#333333;strokeColor=#666666;" vertex="1" parent="gLrb5AoinnA71DhXJc84-87">
          <mxGeometry x="120" y="-180" width="120" height="150" as="geometry" />
        </mxCell>
        <mxCell id="gLrb5AoinnA71DhXJc84-92" value="*UNDEF*" style="text;html=1;align=left;verticalAlign=middle;whiteSpace=wrap;rounded=0;fontSize=18;" vertex="1" parent="gLrb5AoinnA71DhXJc84-87">
          <mxGeometry x="120" y="-210" width="120" height="30" as="geometry" />
        </mxCell>
        <mxCell id="gLrb5AoinnA71DhXJc84-95" value="" style="curved=1;endArrow=classic;html=1;rounded=0;entryX=0;entryY=0;entryDx=0;entryDy=0;" edge="1" parent="gLrb5AoinnA71DhXJc84-87">
          <mxGeometry width="50" height="50" relative="1" as="geometry">
            <mxPoint x="240" y="-110" as="sourcePoint" />
            <mxPoint x="320" y="-160" as="targetPoint" />
            <Array as="points">
              <mxPoint x="260" y="-120" />
              <mxPoint x="280" y="-160" />
            </Array>
          </mxGeometry>
        </mxCell>
        <mxCell id="gLrb5AoinnA71DhXJc84-98" value="" style="curved=1;endArrow=classic;html=1;rounded=0;exitX=0.87;exitY=0.983;exitDx=0;exitDy=0;entryX=1;entryY=0;entryDx=0;entryDy=0;exitPerimeter=0;" edge="1" parent="gLrb5AoinnA71DhXJc84-87" source="gLrb5AoinnA71DhXJc84-22">
          <mxGeometry width="50" height="50" relative="1" as="geometry">
            <mxPoint x="650" y="-620" as="sourcePoint" />
            <mxPoint x="240" y="-90" as="targetPoint" />
            <Array as="points">
              <mxPoint x="260" y="-490" />
              <mxPoint x="270" y="-300" />
              <mxPoint x="287" y="-200" />
            </Array>
          </mxGeometry>
        </mxCell>
      </root>
    </mxGraphModel>
  </diagram>
</mxfile>
